<?xml version="1.0" standalone="no"?><!DOCTYPE svg PUBLIC "-//W3C//DTD SVG 1.1//EN" "http://www.w3.org/Graphics/SVG/1.1/DTD/svg11.dtd"><svg t="1662446972739" class="icon" viewBox="0 0 1024 1024" version="1.1" xmlns="http://www.w3.org/2000/svg" p-id="3203" xmlns:xlink="http://www.w3.org/1999/xlink" width="128" height="128"><path d="M713.5 779.5c-4.9 60.9-19.2 106.3-41.4 131.6-23.2 26.4-68 58-149.3 58.3h-3.1c-23.4 0-82.9-1.7-129.3-43.4-44.2-39.7-51.3-93.7-58.2-145.9l-0.1-1.1c-22-165.5 29.6-265.4 76.8-320 22.4-25.9 56.3-65.1 105.3-66.6 48-1.4 82.8 33.1 105.7 56 74 73.7 105.5 184.8 93.7 330l-0.1 1.1" fill="#E7EBE0" p-id="3204"></path><path d="M516.4 962.1c-1 0-2-0.1-3-0.2-22.1-2.6-33.9-37.1-64.9-136.4-19.2-61.5-43-137.8-76.8-221.3-35.5-11.1-71.5-40.6-97.2-80.1-46.7-71.6-47.1-151.2-0.9-181.4 4.9-3.2 10.2-5.7 15.8-7.5-15.9-20.7-24.4-46.1-24.4-72.2 0.1-62.9 48.8-115 111.6-119.1 12.6-49.9 67.8-86.5 132.8-86.5 56.2 0 103.9 38 124.3 77.5 2.4 0.1 5.8 0.3 10.6 0.6 78.3 4.9 125.1 50.6 125.1 122.3 0 36.7-19.9 62.5-45.3 83.8 19.8 3 34.7 7.9 45.2 14.8 22.8 14.9 34.9 42.6 34.1 77.9-0.8 33.4-13.2 70.2-35 103.6-26.5 40.7-78.4 67.5-107.8 78.1-55.8 105.2-81.5 197.8-98.7 259.3-15.8 56.9-24.2 86.8-45.5 86.8z" fill="#8BCA55" p-id="3205"></path><path d="M515.3 967.8c-26.3 0-46.1-36.9-46.1-85.7l26.1-581.7c0-32.3 5.8-50.5 17.2-53.6l1.3-0.4h1.4c14 0 22.4 0 35.7 322.7 6.4 154.6 10.4 311.1 10.4 312.7 0.1 49.1-19.7 86-46 86z" fill="#E7EBE0" p-id="3206"></path><path d="M698.6 427.2c-52.5 37.4-103.1 81.4-131.7 140.5-7.7 15.9-13.7 32.6-17.4 49.8-1.6 7.5 9.9 10.7 11.6 3.2 13.2-60.8 53.6-110.3 100.2-149.7 13.9-11.8 28.5-22.8 43.4-33.4 6.1-4.5 0.2-14.9-6.1-10.4zM666.7 251c-40.4 41.6-75 88.8-102.3 140-7.8 14.7-15.1 29.7-21.7 45-3 7 7.3 13.1 10.4 6.1 29.3-67.7 70.7-129.7 122.1-182.6 5.4-5.5-3.1-14-8.5-8.5zM491.8 406.6c-29-49.2-68.3-92-114.8-125.2-13.2-9.4-26.9-17.9-41.1-25.7-6.8-3.7-12.8 6.7-6.1 10.4 48.5 26.4 91.5 63 125 107 9.6 12.6 18.5 25.9 26.5 39.6 4.1 6.7 14.4 0.6 10.5-6.1zM485.3 588.7c-38.7-53.6-92.9-94.6-155-117.1-7.3-2.6-10.4 9-3.2 11.6 59 21.4 111.1 60.7 147.8 111.6 4.5 6.1 14.9 0.1 10.4-6.1z" p-id="3207"></path><path d="M441 117c-18.8 8.1-34.2 23.3-42.6 42-3.1 7 7.2 13.1 10.4 6.1 7.7-17.1 21.1-30.3 38.3-37.6 7.1-3.1 1-13.5-6.1-10.5zM385.1 186.5c-1-1-2.7-1.8-4.2-1.8-1.6 0.1-3.2 0.6-4.2 1.8-1.1 1.2-1.8 2.6-1.8 4.2v2.7c0 1.5 0.7 3.2 1.8 4.2 1 1 2.7 1.8 4.2 1.8 1.6-0.1 3.2-0.6 4.2-1.8 1.1-1.2 1.8-2.6 1.8-4.2v-2.7c-0.1-1.5-0.7-3.1-1.8-4.2z" fill="#FFFFFF" p-id="3208"></path></svg>