<?xml version="1.0" standalone="no"?><!DOCTYPE svg PUBLIC "-//W3C//DTD SVG 1.1//EN" "http://www.w3.org/Graphics/SVG/1.1/DTD/svg11.dtd"><svg t="1679800488263" class="icon" viewBox="0 0 1024 1024" version="1.1" xmlns="http://www.w3.org/2000/svg" p-id="1616" xmlns:xlink="http://www.w3.org/1999/xlink" width="200" height="200"><path d="M937.75328469 275.79611937l-48.93030938 49.10139375A133.95955219 133.95955219 0 0 1 699.431885 134.65099813l48.93030844-48.93030938c27.03142969-27.03142969 9.06750469-58.85323875-39.69171844-51.32549906a245.16479906 245.16479906 0 0 0-202.05138094 293.75293875l-410.60399062 410.60399062A133.78846687 133.78846687 0 0 0 285.06402406 928.48538l410.60399063-410.60399062A244.82262937 244.82262937 0 0 0 988.56552781 316.00109375c8.21208-49.10139375-23.78081438-67.23640312-50.81224312-40.20497437zM221.93366094 865.35501594a44.65318406 44.65318406 0 1 1 0-63.13036313 44.65318406 44.65318406 0 0 1 0 63.13036313z m-44.48209969-581.68898625l153.97649719 154.83192094 63.13036312-63.30144844-153.97649625-153.97649625-34.21699968-66.20989406-111.0341625-79.38343782L32.2004 138.75703719l78.87018281 110.5209075z m517.70319844 328.65427687a22.24104937 22.24104937 0 0 0-31.47963938 0l-94.78108781 94.78108782a22.24104937 22.24104937 0 0 0 0 31.47963937l223.43700469 223.43700469A89.30636813 89.30636813 0 1 0 918.59176437 836.09948188z" p-id="1617"></path></svg>