<?xml version="1.0" standalone="no"?><!DOCTYPE svg PUBLIC "-//W3C//DTD SVG 1.1//EN" "http://www.w3.org/Graphics/SVG/1.1/DTD/svg11.dtd"><svg t="1679800477620" class="icon" viewBox="0 0 1149 1024" version="1.1" xmlns="http://www.w3.org/2000/svg" p-id="1616" xmlns:xlink="http://www.w3.org/1999/xlink" width="224.4140625" height="200"><path d="M995.03446308 962H139.66881435A77.66881435 77.66881435 0 0 1 62 884.33118565V139.66881435A77.66881435 77.66881435 0 0 1 139.66881435 62H995.03446308a77.66881435 77.66881435 0 0 1 77.66881524 77.66881435v744.6623713A77.66881435 77.66881435 0 0 1 995.03446308 962zM139.66881435 112.43429492A27.23451943 27.23451943 0 0 0 112.43429492 139.66881435v744.6623713a27.23451943 27.23451943 0 0 0 27.23451943 27.23451943H995.03446308a27.23451943 27.23451943 0 0 0 27.23451944-27.23451943V139.66881435A27.23451943 27.23451943 0 0 0 995.03446308 112.43429492z" p-id="1617"></path><path d="M87.21714747 355.27542734h959.51246836v50.43429493H87.21714747zM87.21714747 637.70748067h959.51246836v50.43429579H87.21714747z" p-id="1618"></path><path d="M153.79041729 210.27682813m25.21714745-1e-8l72.62538575 0q25.21714747 0 25.21714746 25.21714747l0-1e-8q0 25.21714747-25.21714746 25.21714835l-72.62538575 0q-25.21714747 0-25.21714745-25.21714835l0 1e-8q0-25.21714747 25.21714745-25.21714747Z" p-id="1619"></path><path d="M153.79041729 496.49145401m25.21714745 0l72.62538575 0q25.21714747 0 25.21714746 25.21714745l0 0q0 25.21714747-25.21714746 25.21714835l-72.62538575-1e-8q-25.21714747 0-25.21714745-25.21714834l0 0q0-25.21714747 25.21714745-25.21714745Z" p-id="1620"></path><path d="M153.79041729 779.17567959m25.21714745 0l72.62538575 0q25.21714747 0 25.21714746 25.21714746l0 0q0 25.21714747-25.21714746 25.21714746l-72.62538575 0q-25.21714747 0-25.21714745-25.21714746l0 0q0-25.21714747 25.21714745-25.21714746Z" p-id="1621"></path></svg>