<?xml version="1.0" standalone="no"?><!DOCTYPE svg PUBLIC "-//W3C//DTD SVG 1.1//EN" "http://www.w3.org/Graphics/SVG/1.1/DTD/svg11.dtd"><svg t="1679800466008" class="icon" viewBox="0 0 1024 1024" version="1.1" xmlns="http://www.w3.org/2000/svg" p-id="1616" xmlns:xlink="http://www.w3.org/1999/xlink" width="200" height="200"><path d="M512.25104656 992a479.99304563 479.99304563 0 1 1 479.74902281-479.74902281 480.48109125 480.48109125 0 0 1-479.74902281 479.74902281z m0-910.93748812a431.18846531 431.18846531 0 1 0 430.9444425 431.18846531A431.43248813 431.43248813 0 0 0 512.25104656 81.06251187z" p-id="1617"></path><path d="M489.31289469 198.68155062m22.93815187 1e-8l-0.24402281 0q22.93815281 0 22.93815281 22.93815281l0 288.19104469q0 22.93815281-22.93815281 22.93815281l0.24402281 0q-22.93815281 0-22.93815187-22.93815282l0-288.19104468q0-22.93815281 22.93815187-22.93815281Z" p-id="1618"></path><path d="M501.75303781 479.87483094m20.64641906 9.99420937l163.19457001 78.99678094q20.64641906 9.99420937 10.65220968 30.64062844l0 0q-9.99420937 20.64641906-30.64062844 10.65221062l-163.19456906-78.99678187q-20.64641906-9.99420937-10.65221062-30.64062844l0 0q9.99420937-20.64641906 30.64062844-10.65220969Z" p-id="1619"></path></svg>