<?xml version="1.0" standalone="no"?><!DOCTYPE svg PUBLIC "-//W3C//DTD SVG 1.1//EN" "http://www.w3.org/Graphics/SVG/1.1/DTD/svg11.dtd"><svg t="1679800418585" class="icon" viewBox="0 0 1024 1024" version="1.1" xmlns="http://www.w3.org/2000/svg" p-id="1616" xmlns:xlink="http://www.w3.org/1999/xlink" width="200" height="200"><path d="M707.29768733 246.77242311l0 55.83609742 0 475.55049245c0 53.45278635-43.33855517 96.78668345-96.79134038 96.78668345L245.71407815 874.94569643c-53.45278635 0-96.79134037-43.3338971-96.79134037-96.78668345L148.92273778 245.84448c0-53.45744327 43.33855517-96.79134037 96.79134037-96.79134037l364.7922688 0c53.45278635 0 96.79134037 43.3338971 96.79134038 96.79134037L707.29768733 246.77242311 707.29768733 246.77242311zM707.29768733 915.84155989l0 14.94023396 111.67219598 0c61.67154461 0 111.67685291-50.00065138 111.6768529-111.67219598L930.64673621 372.40218738c0-61.67503758-50.0053083-111.67219598-111.6768529-111.67219599L763.1326208 260.72999139l0-55.83609742c0-61.67969451-50.00065138-111.67685291-111.67685291-111.6768529L204.75767125 93.21704107c-61.67154461 0-111.67219598 49.9971584-111.67219598 111.6768529l0 614.21570504c0 61.67154461 50.00065138 111.67219598 111.67219598 111.67219598l446.69809664 0C671.79949625 930.78179499 690.87064861 925.33289415 707.29768733 915.84155989L707.29768733 915.84155989zM874.80598073 778.15901298c0 53.45278635-43.3338971 96.78668345-96.78668345 96.78668345l-29.82574649 0c9.50064811-16.43635371 14.94023395-35.49702713 14.94023396-55.83609742L763.13378589 316.56608995l14.88551253 0c53.45278635 0 96.78668345 43.32924018 96.78668345 96.78202653l0 0.93260003L874.80598073 778.15901298 874.80598073 778.15901298zM260.59842674 693.47051975c0 15.41759545 12.49754339 13.95756942 27.91630279 13.95756942l279.18980324 0c15.41759545 0 27.91513771 1.4553691 27.9151377-13.95756942 0-15.41759545-12.49754339-41.87852914-27.9151377-41.87852914L288.51472953 651.59199061C273.09597013 651.59199061 260.59842674 678.04826738 260.59842674 693.47051975L260.59842674 693.47051975zM260.59842674 525.95756942c0 15.41759545 12.49754339 13.95756942 27.91630279 13.95756943l279.18980324 0c15.41759545 0 27.91513771 1.46002603 27.9151377-13.95756943 0-15.41759545-12.49754339-41.87852914-27.9151377-41.87852913L288.51472953 484.07904029C273.09597013 484.07904029 260.59842674 510.53997397 260.59842674 525.95756942L260.59842674 525.95756942zM260.59842674 358.44461795c0 15.41759545 12.49754339 13.96222635 27.91630279 13.96222635l279.18980324 0c15.41759545 0 27.91513771 1.4553691 27.9151377-13.96222635 0-15.41759545-12.49754339-41.87852914-27.9151377-41.87852913L288.51472953 316.56608995C273.09597013 316.56608995 260.59842674 343.02702365 260.59842674 358.44461795L260.59842674 358.44461795zM260.59842674 358.44461795" p-id="1617"></path></svg>