<?xml version="1.0" standalone="no"?><!DOCTYPE svg PUBLIC "-//W3C//DTD SVG 1.1//EN" "http://www.w3.org/Graphics/SVG/1.1/DTD/svg11.dtd"><svg t="1662446938878" class="icon" viewBox="0 0 1024 1024" version="1.1" xmlns="http://www.w3.org/2000/svg" p-id="1212" xmlns:xlink="http://www.w3.org/1999/xlink" width="128" height="128"><path d="M845.17647031 194.35294156l-96-101.64705937c-22.58823563-28.23529406-56.47058813-28.23529406-79.05882281 0l-50.82352969 56.47058812-429.17647031 468.70588219c-5.64705844 5.64705844-5.64705844 11.29411781-5.64705938 16.94117719l-33.8823525 180.70588219c-5.64705844 22.58823563 11.29411781 39.52941188 33.88235251 33.8823525l169.41176437-33.8823525c5.64705844 0 11.29411781-5.64705844 16.94117719-11.29411782l400.94117625-440.47058812 79.05882375-84.70588219c16.94117625-28.23529406 16.94117625-62.1176475-5.64705938-84.70588219z m-513.8823525 570.35294063l-118.58823562 22.58823562 22.58823562-124.23529406 39.52941188-45.17647125 96 107.29411781-39.52941188 39.52941188z m79.05882375-90.35294063l-96-107.29411781 321.8823525-350.1176475 96 101.64705938-321.8823525 355.76470593z m361.41176438-389.64705937l-101.64705844-107.29411781 39.52941094-45.17647032 101.64705937 107.29411782-39.52941187 45.17647031zM60.23529406 900.23529406h903.52941188v56.47058813h-903.52941188z" p-id="1213"></path></svg>