<?xml version="1.0" standalone="no"?><!DOCTYPE svg PUBLIC "-//W3C//DTD SVG 1.1//EN" "http://www.w3.org/Graphics/SVG/1.1/DTD/svg11.dtd"><svg t="1679800497161" class="icon" viewBox="0 0 1024 1024" version="1.1" xmlns="http://www.w3.org/2000/svg" p-id="1616" xmlns:xlink="http://www.w3.org/1999/xlink" width="200" height="200"><path d="M636.70044445 917.73155555c-17.29422222 0-31.28888889-13.99466667-31.2888889-31.28888888V740.92088889c0-51.54133333-41.984-93.52533333-93.52533333-93.52533334s-93.52533333 41.984-93.52533333 93.52533334v145.52177778c0 17.29422222-13.99466667 31.28888889-31.28888889 31.28888888s-31.28888889-13.99466667-31.28888889-31.28888888V740.92088889c0-86.016 69.97333333-155.98933333 155.98933334-155.98933334s155.98933333 69.97333333 155.98933333 155.98933334v145.52177778c0.22755555 17.29422222-13.76711111 31.28888889-31.06133333 31.28888888zM803.04355555 314.48177778c-17.29422222 0-31.28888889-13.99466667-31.28888888-31.28888889v-103.99288889c0-17.29422222 13.99466667-31.28888889 31.28888888-31.28888889s31.28888889 13.99466667 31.2888889 31.28888889v103.99288889c0 17.29422222-13.99466667 31.28888889-31.2888889 31.28888889z" p-id="1617"></path><path d="M636.70044445 917.73155555c-17.29422222 0-31.28888889-13.99466667-31.2888889-31.28888888V740.92088889c0-51.54133333-41.984-93.52533333-93.52533333-93.52533334s-93.52533333 41.984-93.52533333 93.52533334v145.52177778c0 17.29422222-13.99466667 31.28888889-31.28888889 31.28888888s-31.28888889-13.99466667-31.28888889-31.28888888V740.92088889c0-86.016 69.97333333-155.98933333 155.98933334-155.98933334s155.98933333 69.97333333 155.98933333 155.98933334v145.52177778c0.22755555 17.29422222-13.76711111 31.28888889-31.06133333 31.28888888z" p-id="1618"></path><path d="M803.04355555 938.43911111H220.72888889c-40.04977778 0-72.81777778-32.65422222-72.81777778-72.81777778V324.38044445c0-17.29422222 13.99466667-31.28888889 31.28888889-31.2888889s31.28888889 13.99466667 31.28888889 31.2888889v541.35466666c0 5.68888889 4.66488889 10.46755555 10.46755556 10.46755556h582.42844444c5.68888889 0 10.46755555-4.66488889 10.46755556-10.46755556V337.46488889c0-17.29422222 13.99466667-31.28888889 31.28888888-31.28888889s31.28888889 13.99466667 31.28888889 31.28888889v528.27022222c-0.56888889 40.04977778-33.10933333 72.704-73.38666667 72.704z" p-id="1619"></path><path d="M948.67911111 418.47466667c-5.68888889 0-11.37777778-1.47911111-16.384-4.66488889L495.50222222 143.36c-14.67733333-8.98844445-19.22844445-28.33066667-10.12622222-43.008 8.98844445-14.67733333 28.33066667-19.22844445 43.008-10.12622222l436.90666667 270.336c14.67733333 8.98844445 19.22844445 28.33066667 10.12622222 43.008-6.144 9.67111111-16.27022222 14.90488889-26.73777778 14.90488889z" p-id="1620"></path><path d="M75.20711111 418.47466667c-10.46755555 0-20.59377778-5.23377778-26.624-14.79111112-8.98844445-14.67733333-4.55111111-33.90577778 10.12622222-43.008l436.90666667-270.336c14.67733333-8.98844445 33.90577778-4.55111111 43.008 10.12622223 8.98844445 14.67733333 4.55111111 33.90577778-10.12622222 43.008L91.47733333 413.80977778c-5.12 3.072-10.80888889 4.66488889-16.27022222 4.66488889z" p-id="1621"></path></svg>