<?xml version="1.0" standalone="no"?><!DOCTYPE svg PUBLIC "-//W3C//DTD SVG 1.1//EN" "http://www.w3.org/Graphics/SVG/1.1/DTD/svg11.dtd"><svg t="1662446981079" class="icon" viewBox="0 0 1024 1024" version="1.1" xmlns="http://www.w3.org/2000/svg" p-id="3516" xmlns:xlink="http://www.w3.org/1999/xlink" width="128" height="128"><path d="M634.368 76.34488889c39.13955555-2.16177778 72.36266667 27.87555555 74.52444444 66.90133333l10.01244444 188.52977778c2.16177778 39.13955555-27.87555555 72.36266667-66.90133333 74.52444445-39.13955555 2.16177778-72.36266667-27.87555555-74.52444444-66.90133334L567.46666666 150.86933333c-1.93422222-39.13955555 27.98933333-72.59022222 66.90133334-74.52444444z" fill="#91CE55" p-id="3517"></path><path d="M652.68622222 257.47911111l126.17955556-140.51555556c26.16888889-29.01333333 70.88355555-31.51644445 99.89688888-5.34755555s31.51644445 70.88355555 5.34755556 99.89688889l-126.29333334 140.51555556c-26.16888889 29.01333333-70.88355555 31.51644445-99.89688888 5.34755555s-31.40266667-70.88355555-5.23377778-99.89688889z" fill="#A4CE4E" p-id="3518"></path><path d="M663.38133333 275.56977778l188.52977778-10.01244445c39.13955555-2.16177778 72.36266667 27.87555555 74.52444444 66.90133334 2.16177778 39.13955555-27.87555555 72.36266667-66.90133333 74.52444444L671.00444444 416.99555555c-39.13955555 2.16177778-72.36266667-27.87555555-74.52444444-66.90133333-2.048-39.13955555 27.87555555-72.36266667 66.90133333-74.52444444z" fill="#A1D72B" p-id="3519"></path><path d="M743.936 247.92177778c90.68088889 81.46488889 101.94488889 219.59111111 25.71377778 314.82311111-2.61688889 3.52711111-5.46133333 6.82666667-8.41955556 10.01244444-6.25777778 7.168-13.08444445 13.88088889-20.36622222 19.91111112-119.23911111 121.96977778-255.08977778 226.304-403.456 310.04444444l-6.03022222 3.29955556c-52.45155555 27.87555555-116.84977778 20.02488889-161.10933334-19.56977778s-59.05066667-102.85511111-36.75022222-158.03733334c-0.11377778-2.16177778 1.82044445-4.43733333 2.73066666-6.37155555 67.584-156.55822222 156.89955555-302.87644445 265.10222223-434.63111111 5.34755555-7.73688889 11.264-15.24622222 17.63555555-22.18666667 3.072-3.29955555 6.03022222-6.37155555 9.32977778-9.32977778 86.35733333-85.90222222 224.93866667-89.31555555 315.61955556-7.96444444z" fill="#FF4601" p-id="3520"></path><path d="M631.52355555 194.56c103.08266667 92.16 116.39466667 248.832 30.15111111 356.80711111-3.18577778 4.096-6.37155555 7.73688889-9.44355555 11.264-7.39555555 8.192-15.47377778 15.81511111-24.23466667 22.64177778a2060.85688889 2060.85688889 0 0 1-415.28888889 326.88355556c-34.92977778-13.88088889-62.91911111-41.07377778-77.71022222-75.54844445-14.90488889-34.47466667-15.36-73.61422222-1.36533333-108.43022222-0.11377778-2.16177778 1.82044445-4.43733333 2.73066666-6.37155556 11.71911111-26.624 23.77955555-53.248 36.75022222-79.53066667 11.264-23.43822222 23.32444445-46.64888889 35.84-69.85955555 12.62933333-23.09688889 26.73777778-47.44533333 42.32533334-73.15911111 13.42577778-21.84533333 27.19288889-43.46311111 41.64266666-64.73955556 15.81511111-23.77955555 31.97155555-46.87644445 48.01422223-69.40444444 14.90488889-20.48 30.60622222-40.73244445 46.53511111-60.416 4.43733333-5.91644445 9.10222222-11.71911111 13.88088889-17.29422222 5.34755555-7.73688889 11.264-15.24622222 17.63555555-22.18666667 3.072-3.29955555 6.03022222-6.37155555 9.32977778-9.32977778 52.45155555-52.56533333 127.43111111-76.45866667 200.704-63.82933333l2.50311111 2.50311111z" fill="#F86F1F" p-id="3521"></path><path d="M208.27022222 571.61955555l73.27288889 65.87733334c12.74311111 8.07822222 19.456 22.98311111 17.18044444 37.888s-13.19822222 27.07911111-27.87555555 30.83377778c-14.56355555 3.98222222-30.15111111-1.25155555-39.59466667-12.97066667l-59.16444445-51.99644445c11.71911111-23.21066667 23.552-46.42133333 36.18133334-69.632zM291.89688888 438.61333333l122.08355556 109.68177778c11.71911111 14.56355555 11.15022222 35.27111111-1.36533333 49.26577778-12.51555555 13.88088889-33.10933333 16.72533333-48.81066667 6.71288889l-113.55022222-100.69333333c13.19822222-22.07288889 27.19288889-43.69066667 41.64266666-64.96711112zM385.76355555 308.56533333l94.43555556 84.76444445c11.71911111 14.56355555 11.15022222 35.27111111-1.36533333 49.26577777-12.51555555 13.88088889-33.10933333 16.72533333-48.81066667 6.7128889L339.91111111 368.29866667c14.336-19.68355555 29.696-40.16355555 45.85244444-59.73333334z" fill="#F4C1A8" p-id="3522"></path><path d="M603.07911111 202.752c-24.91733333-2.27555555-50.06222222 2.27555555-72.59022223 13.42577778-7.62311111 3.75466667-2.38933333 15.92888889 5.34755556 12.17422222 20.48-10.01244445 43.008-14.44977778 65.87733334-12.288 8.53333333 0.68266667 9.89866667-12.62933333 1.36533333-13.312zM505.23022222 232.22044445c-5.34755555-6.71288889-15.81511111 1.70666667-10.35377778 8.41955555 5.34755555 6.59911111 15.70133333-1.70666667 10.35377778-8.41955555z" fill="#FFFFFF" p-id="3523"></path></svg>