<?xml version="1.0" standalone="no"?><!DOCTYPE svg PUBLIC "-//W3C//DTD SVG 1.1//EN" "http://www.w3.org/Graphics/SVG/1.1/DTD/svg11.dtd"><svg t="1679800514763" class="icon" viewBox="0 0 1024 1024" version="1.1" xmlns="http://www.w3.org/2000/svg" p-id="1616" xmlns:xlink="http://www.w3.org/1999/xlink" width="200" height="200"><path d="M122 644c-18 0-36-18-36-36V416c0-18 18-36 36-36s36 18 36 36v192c0 24-12 36-36 36z" p-id="1617"></path><path d="M986 512c0-48-30-84-72-96V182c0-78-60-138-138-138H224C146 44 86 104 86 182v18c0 18 18 36 36 36s36-18 36-36v-18c0-36 30-66 66-66h558c36 0 66 30 66 66V416c-36 12-72 54-72 96 0 48 30 84 72 96v234c0 36-30 66-66 66H224c-36 0-66-30-66-66v-18c0-18-18-36-36-36s-36 18-36 36v18c0 78 60 138 138 138h558c78 0 138-60 138-138V614c42-18 66-54 66-102z m-102 48c-24 0-48-18-48-48 0-24 18-48 48-48s48 18 48 48c-6 24-24 48-48 48z" p-id="1618"></path><path d="M650 344H356c-18 0-36-12-36-36 0-18 18-36 36-36h294c18 0 36 18 36 36 0 24-18 36-36 36zM650 548H356c-18 0-36-12-36-36 0-18 18-36 36-36h294c18 0 36 18 36 36 0 24-18 36-36 36zM650 752H356c-18 0-36-18-36-36s18-36 36-36h294c18 0 36 18 36 36 0 24-18 36-36 36z" p-id="1619"></path><path d="M176 752H74c-18 0-36-18-36-36s18-36 36-36h102c18 0 36 18 36 36 0 24-18 36-36 36z" p-id="1620"></path><path d="M176 344H74c-24 0-36-12-36-36 0-18 12-36 36-36h102c18 0 36 18 36 36 0 24-18 36-36 36z" p-id="1621"></path></svg>