<?xml version="1.0" standalone="no"?><!DOCTYPE svg PUBLIC "-//W3C//DTD SVG 1.1//EN" "http://www.w3.org/Graphics/SVG/1.1/DTD/svg11.dtd"><svg t="1679800439148" class="icon" viewBox="0 0 1024 1024" version="1.1" xmlns="http://www.w3.org/2000/svg" p-id="1616" xmlns:xlink="http://www.w3.org/1999/xlink" width="200" height="200"><path d="M512 489.81333333c123.67644445 0 224.02844445-100.46577778 224.02844445-224.36977778 0-123.904-100.352-224.256-224.02844445-224.256-123.79022222 0-224.02844445 100.352-224.02844445 224.256 0 123.904 100.23822222 224.36977778 224.02844445 224.36977778z m0-381.38311111c86.47111111 0 156.78577778 70.42844445 156.78577778 157.01333333 0 86.69866667-70.31466667 157.12711111-156.78577778 157.12711112-86.47111111 0-156.78577778-70.42844445-156.78577778-157.12711112 0-86.58488889 70.31466667-157.01333333 156.78577778-157.01333333zM914.54577778 844.68622222v-21.73155555c0-185.57155555-21.95911111-311.06844445-224.02844445-311.06844445H333.48266667c-202.18311111 0-224.02844445 125.49688889-224.02844445 311.06844445v21.73155555c0 4.096-0.91022222 35.84-0.79644444 68.26666667 0.22755555 29.696 17.52177778 47.21777778 47.78666667 47.21777778h711.56622222c29.35466667 0 47.104-17.18044445 47.33155555-48.24177778 0.11377778-32.65422222-0.79644445-63.26044445-0.79644444-67.24266667z m-738.64533333 48.128c0.11377778-16.384 0.45511111-30.94755555 0.56888888-39.36711111l0.11377778-8.87466666v-21.73155556c0-200.59022222 27.87555555-243.82577778 156.89955556-243.82577778h356.92088888c129.024 0 156.89955555 43.34933333 156.89955556 243.82577778v21.73155556l0.22755556 8.98844444c0.22755555 8.30577778 0.56888889 22.75555555 0.68266666 39.25333333H175.90044445z" p-id="1617"></path></svg>