<?xml version="1.0" standalone="no"?><!DOCTYPE svg PUBLIC "-//W3C//DTD SVG 1.1//EN" "http://www.w3.org/Graphics/SVG/1.1/DTD/svg11.dtd"><svg t="1662446947613" class="icon" viewBox="0 0 1024 1024" version="1.1" xmlns="http://www.w3.org/2000/svg" p-id="1677" xmlns:xlink="http://www.w3.org/1999/xlink" width="128" height="128"><path d="M932 422V212l-68.49 68.49a419.73 419.73 0 0 0-350.25-188.52C281.3 91.97 93.23 280.01 93.23 512S281.3 932.03 513.26 932.03a420.06 420.06 0 0 0 389.28-262.02 35.97 35.97 0 1 0-66.69-27.09 348.15 348.15 0 0 1-322.59 217.11C321.05 860.03 165.23 704.21 165.23 512S321.05 163.97 513.26 163.97c124.17 0 236.19 65.7 298.14 168.6L722 422h210z" p-id="1678"></path></svg>