<?xml version="1.0" standalone="no"?><!DOCTYPE svg PUBLIC "-//W3C//DTD SVG 1.1//EN" "http://www.w3.org/Graphics/SVG/1.1/DTD/svg11.dtd"><svg t="1662446955502" class="icon" viewBox="0 0 1024 1024" version="1.1" xmlns="http://www.w3.org/2000/svg" p-id="2133" xmlns:xlink="http://www.w3.org/1999/xlink" width="128" height="128"><path d="M916.8125 485.84375c-16.40625-12.84375-40.125-10.03125-53.0625 6.375-5.34375 6.84375-7.96875 14.8125-8.0625 22.875h-0.375c-0.5625 73.40625-24.46875 147.1875-73.125 209.34375-117.09375 149.25-333.75 175.40625-483 58.40625-29.71875-23.34375-54.5625-50.625-74.34375-80.53125h72.28125c21 0 38.15625-17.15625 38.15625-38.15625v-2.8125c0-21-17.15625-38.15625-38.15625-38.15625H130.90625c-21 0-38.15625 17.15625-38.15625 38.15625v166.21875c0 21 17.15625 38.15625 38.15625 38.15625h2.8125c21 0 38.15625-17.15625 38.15625-38.15625v-68.53125c22.6875 31.21875 49.6875 59.15625 80.625 83.4375 44.625 34.96875 94.6875 60.1875 148.96875 74.90625 52.40625 14.25 106.40625 18.09375 160.5 11.53125 54.09375-6.5625 105.65625-23.15625 153.09375-49.5 49.21875-27.1875 91.875-63.65625 126.84375-108.1875 34.96875-44.625 60.1875-94.6875 74.90625-148.96875 9.5625-35.25 14.4375-71.25 14.625-107.4375h-0.09375c-0.28125-10.875-5.15625-21.65625-14.53125-28.96875zM893.28125 158.75h-2.8125c-21 0-38.15625 17.15625-38.15625 38.15625V265.4375c-22.6875-31.21875-49.6875-59.15625-80.625-83.4375-44.625-34.96875-94.6875-60.1875-148.96875-74.90625-52.40625-14.25-106.40625-18.09375-160.5-11.53125-54.09375 6.5625-105.65625 23.15625-153.09375 49.5-49.21875 27.1875-91.875 63.65625-126.84375 108.1875-34.96875 44.53125-60.1875 94.6875-74.90625 148.875-9.5625 35.25-14.4375 71.25-14.625 107.4375h0.09375c0.1875 10.96875 5.15625 21.75 14.4375 28.96875 16.40625 12.84375 40.125 10.03125 53.0625-6.375 5.34375-6.84375 7.96875-14.8125 8.0625-22.875h0.375c0.5625-73.40625 24.46875-147.1875 73.125-209.34375 117.09375-149.25 333.75-175.40625 483-58.40625 29.71875 23.34375 54.5625 50.625 74.34375 80.53125h-72.28125c-21 0-38.15625 17.15625-38.15625 38.15625v2.8125c0 21 17.15625 38.15625 38.15625 38.15625h166.21875c21 0 38.15625-17.15625 38.15625-38.15625V196.8125c0.09375-20.90625-17.0625-38.0625-38.0625-38.0625z" p-id="2134"></path></svg>