<?xml version="1.0" standalone="no"?><!DOCTYPE svg PUBLIC "-//W3C//DTD SVG 1.1//EN" "http://www.w3.org/Graphics/SVG/1.1/DTD/svg11.dtd"><svg t="1679800455904" class="icon" viewBox="0 0 1024 1024" version="1.1" xmlns="http://www.w3.org/2000/svg" p-id="1616" xmlns:xlink="http://www.w3.org/1999/xlink" width="200" height="200"><path d="M963.95567408 853.27265185h-31.06891853V418.30779259c0-68.32734815-55.94832592-124.27567408-124.27567407-124.27567407H622.19757037v-62.13783704c0-68.32734815-55.94832592-124.27567408-124.27567407-124.27567407H249.37054815c-68.32734815 0-124.27567408 55.94832592-124.27567407 124.27567407v621.37837037h-31.06891853c-17.3549037 0-31.06891852 13.71401482-31.06891852 31.06891852s13.71401482 31.06891852 31.06891852 31.06891852h869.92971853c17.3549037 0 31.06891852-13.71401482 31.06891851-31.06891852s-13.71401482-31.06891852-31.06891851-31.06891852zM560.05973333 294.03211852v559.24053333H187.23271111v-621.37837037c0-34.22435555 27.91348148-62.13783703 62.13783704-62.13783703h248.55134815c34.22435555 0 62.13783703 27.91348148 62.13783703 62.13783703v62.13783704z m310.68918519 559.24053333H622.19757037V356.16995555h186.41351111c34.22435555 0 62.13783703 27.91348148 62.13783704 62.13783704v434.96485926zM466.85297778 294.03211852H280.43946667c-17.3549037 0-31.06891852 13.71401482-31.06891852 31.06891851s13.71401482 31.06891852 31.06891852 31.06891852h186.41351111c17.3549037 0 31.06891852-13.71401482 31.06891852-31.06891852s-13.71401482-31.06891852-31.06891852-31.06891851z m0 186.41351111H280.43946667c-17.3549037 0-31.06891852 13.71401482-31.06891852 31.06891852s13.71401482 31.06891852 31.06891852 31.06891852h186.41351111c17.3549037 0 31.06891852-13.71401482 31.06891852-31.06891852S484.20788148 480.44562963 466.85297778 480.44562963z m0 186.41351112H280.43946667c-17.3549037 0-31.06891852 13.71401482-31.06891852 31.0689185s13.71401482 31.06891852 31.06891852 31.06891853h186.41351111c17.3549037 0 31.06891852-13.71401482 31.06891852-31.06891853s-13.71401482-31.06891852-31.06891852-31.0689185z m310.68918519-186.41351112h-62.13783705c-17.3549037 0-31.06891852 13.71401482-31.06891851 31.06891852s13.71401482 31.06891852 31.06891851 31.06891852h62.13783705c17.3549037 0 31.06891852-13.71401482 31.06891851-31.06891852S794.89706667 480.44562963 777.54216297 480.44562963z m0 186.41351112h-62.13783705c-17.3549037 0-31.06891852 13.71401482-31.06891851 31.0689185s13.71401482 31.06891852 31.06891851 31.06891853h62.13783705c17.3549037 0 31.06891852-13.71401482 31.06891851-31.06891853s-13.71401482-31.06891852-31.06891851-31.0689185z m0 0" p-id="1617"></path></svg>