<?xml version="1.0" standalone="no"?><!DOCTYPE svg PUBLIC "-//W3C//DTD SVG 1.1//EN" "http://www.w3.org/Graphics/SVG/1.1/DTD/svg11.dtd"><svg t="1679800507173" class="icon" viewBox="0 0 1024 1024" version="1.1" xmlns="http://www.w3.org/2000/svg" p-id="1616" xmlns:xlink="http://www.w3.org/1999/xlink" width="200" height="200"><path d="M478.08 525.97333333c65.49333333 0 127.04-25.49333333 173.33333333-71.78666666 46.29333333-46.29333333 71.78666667-107.84 71.78666667-173.33333334s-25.49333333-127.04-71.78666667-173.33333333c-46.29333333-46.29333333-107.84-71.78666667-173.33333333-71.78666667s-127.04 25.49333333-173.33333333 71.78666667c-46.29333333 46.29333333-71.78666667 107.84-71.78666667 173.33333333s25.49333333 127.04 71.78666667 173.33333334c46.29333333 46.29333333 107.84 71.78666667 173.33333333 71.78666666z m0-413.65333333c92.8 0 168.42666667 75.52 168.42666667 168.42666667s-75.52 168.42666667-168.42666667 168.42666666-168.42666667-75.52-168.42666667-168.42666666 75.62666667-168.42666667 168.42666667-168.42666667zM915.94666667 606.29333333c21.22666667 0 38.4-17.17333333 38.4-38.4s-17.17333333-38.4-38.4-38.4h-77.12v-48.10666666h77.12c21.22666667 0 38.4-17.17333333 38.4-38.4s-17.17333333-38.4-38.4-38.4H800.42666667c-21.22666667 0-38.4 17.17333333-38.4 38.4v242.02666666c-66.34666667 17.06666667-115.52 77.44-115.52 149.12 0 84.90666667 69.01333333 153.92 153.92 153.92S954.34666667 919.04 954.34666667 834.13333333c0-71.68-49.17333333-131.94666667-115.52-149.12v-78.61333333h77.12z m-38.4 227.73333334c0 42.56-34.56 77.12-77.12 77.12s-77.12-34.56-77.12-77.12 34.56-77.12 77.12-77.12 77.12 34.56 77.12 77.12zM678.08 611.73333333c0-21.22666667-17.17333333-38.4-38.4-38.4h-364.8c-54.29333333 0-105.49333333 19.84-144.21333333 55.78666667-39.46666667 36.69333333-61.12 85.65333333-61.12 137.92v148.37333333c0 21.22666667 17.17333333 38.4 38.4 38.4s38.4-17.17333333 38.4-38.4V767.04c0-64.42666667 57.6-116.90666667 128.53333333-116.90666667h364.8c21.22666667 0 38.4-17.17333333 38.4-38.4z" p-id="1617"></path></svg>