<?xml version="1.0" standalone="no"?><!DOCTYPE svg PUBLIC "-//W3C//DTD SVG 1.1//EN" "http://www.w3.org/Graphics/SVG/1.1/DTD/svg11.dtd"><svg t="1679800523097" class="icon" viewBox="0 0 1024 1024" version="1.1" xmlns="http://www.w3.org/2000/svg" p-id="1616" xmlns:xlink="http://www.w3.org/1999/xlink" width="200" height="200"><path d="M784.24533333 480.65066667c37.44-33.088 61.17333333-80.992 61.17333334-134.4 0-92.62933333-69.41866667-169.536-161.472-178.90133334-18.63466667-1.888-35.49866667 11.76533333-37.41866667 30.51733334-1.89866667 18.752 11.76533333 35.49866667 30.51733333 37.39733333 57.06666667 5.81333333 100.096 53.51466667 100.096 110.98666667 0 56.864-42.53866667 104.512-98.93333333 110.848-12.416 1.38666667-22.00533333 9.55733333-26.79466667 20.17066666-0.04266667 0.08533333-0.08533333 0.16-0.128 0.23466667-1.32266667 2.98666667-2.06933333 6.08-2.48533333 9.408-0.21333333 1.23733333-0.87466667 2.29333333-0.93866667 3.57333333-0.05333333 0.94933333 0.37333333 1.77066667 0.39466667 2.69866667 0.032 0.56533333-0.20266667 1.06666667-0.13866667 1.632 0.096 0.85333333 0.56533333 1.536 0.72533334 2.35733333 2.32533333 15.712 14.76266667 28.352 31.232 29.26933334 127.25333333 7.02933333 231.136 108.21333333 241.65333333 235.37066666 1.472 17.83466667 16.40533333 31.31733333 33.984 31.31733334 0.93866667 0 1.888-0.032 2.848-0.11733334 18.784-1.54666667 32.74666667-18.03733333 31.2-36.832-10.4-125.696-93.088-231.072-205.51466667-275.53066666z" p-id="1617"></path><path d="M537.728 498.25066667c47.09333333-37.696 77.38666667-95.54133333 77.38666667-160.416 0-113.33333333-92.20266667-205.536-205.51466667-205.536s-205.51466667 92.20266667-205.51466667 205.536c0 64.864 30.29333333 122.72 77.38666667 160.416C147.2 547.59466667 46.592 671.52 34.25066667 820.61866667c-1.54666667 18.784 12.416 35.28533333 31.2 36.832 19.264 1.664 35.28533333-12.43733333 36.832-31.2C115.40266667 667.616 250.4 543.34933333 409.6 543.34933333s294.19733333 124.26666667 307.31733333 282.90133334c1.472 17.83466667 16.40533333 31.31733333 33.984 31.31733333 0.93866667 0 1.888-0.032 2.848-0.11733333 18.784-1.54666667 32.74666667-18.048 31.2-36.832C772.608 671.52 672 547.59466667 537.728 498.25066667zM272.352 337.83466667c0-75.68 61.568-137.26933333 137.248-137.26933334s137.248 61.57866667 137.248 137.26933334S485.28 475.08266667 409.6 475.08266667s-137.248-61.568-137.248-137.248z" p-id="1618"></path></svg>